<?xml version="1.0" encoding="utf-8"?>
<!-- Generator: Adobe Illustrator 24.1.1, SVG Export Plug-In . SVG Version: 6.00 Build 0)  -->
<svg version="1.1" xmlns="http://www.w3.org/2000/svg" xmlns:xlink="http://www.w3.org/1999/xlink" x="0px" y="0px"
	 viewBox="0 0 400 300" style="enable-background:new 0 0 400 300;" xml:space="preserve">
<style type="text/css">
	.st0{fill:none;stroke:#000000;stroke-width:2;stroke-miterlimit:10;}
	.st1{fill:#C77C52;stroke:#000000;stroke-miterlimit:10;}
	.st2{stroke:#000000;stroke-miterlimit:10;}
	.st3{fill:#FFFFFF;}
	.st4{fill:none;stroke:#000000;stroke-width:20;stroke-linecap:round;stroke-miterlimit:10;}
</style>
<g id="Right_Eye_1_">
	<ellipse class="st0" cx="286.72" cy="190.42" rx="77" ry="63"/>
</g>
<g id="Left_Eye">
	<ellipse class="st0" cx="122.56" cy="191.4" rx="63" ry="77"/>
</g>
<g id="Right_Pupil">
	<g>
		<ellipse class="st1" cx="296.03" cy="190.42" rx="45.01" ry="48.35"/>
		<ellipse class="st2" cx="305.34" cy="190.42" rx="31.83" ry="34.19"/>
		<ellipse class="st3" cx="323.3" cy="161.72" rx="20" ry="21.49"/>
	</g>
</g>
<g id="Left_Pupil">
	<g>
		<ellipse class="st1" cx="131.87" cy="191.4" rx="45.01" ry="48.35"/>
		<ellipse class="st2" cx="141.17" cy="191.4" rx="31.83" ry="34.19"/>
		<ellipse class="st3" cx="159.14" cy="162.7" rx="20" ry="21.49"/>
	</g>
</g>
<g id="Right_Eyebrow">
	<path class="st4" d="M221.87,107.63c9.07-1.7,23.43-4.43,41.06-8.01c43.54-8.85,52.7-11.82,67.07-9.85
		c11.37,1.56,29.09,6.65,49.11,24.88"/>
</g>
<g id="Left_Eyebrow">
	<path class="st4" d="M178.81,106.62c-9.25-3.13-23.18-8.43-39.06-17.03C92.2,63.87,79.49,36.95,59.05,39.25
		C47.83,40.52,32.64,50.77,17.56,93.6"/>
</g>
</svg>
