<?xml version="1.0" encoding="utf-8"?>
<!-- Generator: Adobe Illustrator 24.1.1, SVG Export Plug-In . SVG Version: 6.00 Build 0)  -->
<svg version="1.1" id="Layer_1" xmlns="http://www.w3.org/2000/svg" xmlns:xlink="http://www.w3.org/1999/xlink" x="0px" y="0px"
	 viewBox="0 0 400 300" style="enable-background:new 0 0 400 300;" xml:space="preserve">
<style type="text/css">
	.st0{fill:none;stroke:#999999;stroke-width:2;stroke-miterlimit:10;}
	.st1{fill:#999999;stroke:#010000;stroke-miterlimit:10;}
	.st2{fill:#4B4B4B;stroke:#000000;stroke-miterlimit:10;}
	.st3{fill:#FFFFFF;}
	.st4{fill:#999999;stroke:#000000;stroke-miterlimit:10;}
	.st5{fill:none;stroke:#999999;stroke-width:20;stroke-linecap:round;stroke-miterlimit:10;}
</style>
<ellipse class="st0" cx="287.94" cy="191.29" rx="77" ry="63"/>
<ellipse class="st0" cx="123.78" cy="192.26" rx="63" ry="77"/>
<g>
	<ellipse class="st1" cx="297.25" cy="191.29" rx="45.01" ry="48.35"/>
	<ellipse class="st2" cx="306.56" cy="191.29" rx="31.83" ry="34.19"/>
	<ellipse class="st3" cx="324.53" cy="162.59" rx="20" ry="21.49"/>
</g>
<g>
	<ellipse class="st4" cx="133.09" cy="192.26" rx="45.01" ry="48.35"/>
	<ellipse class="st2" cx="142.4" cy="192.26" rx="31.83" ry="34.19"/>
	<ellipse class="st3" cx="160.36" cy="163.56" rx="20" ry="21.49"/>
</g>
<path class="st5" d="M223.1,108.49c9.66-1.51,23.94-4,41.06-8.01c40.46-9.47,52.56-17.05,71.11-14.02
	c11.75,1.92,27.76,8.36,45.07,29.04"/>
<path class="st5" d="M180.03,107.49c-9.25-3.13-23.18-8.43-39.06-17.03c-47.55-25.73-60.25-52.64-80.7-50.34
	c-11.22,1.26-26.41,11.52-41.49,54.35"/>
</svg>
